<svg id="Layer_1" data-name="Layer 1" xmlns="http://www.w3.org/2000/svg" viewBox="0 0 350 293.96"><path d="M375,257.24V242.42l-49.71-34.13c-1.77-16.61-4.82-28-9.56-28-3.5,0-6.07,6.15-7.89,16l-31.68-21.76c-1.73-17.77-4.84-30.14-9.79-30.14-3.69,0-6.36,6.9-8.19,17.8l-38.86-26.69C217.11,89.31,211.27,53,200,53s-17.1,36.29-19.31,82.5l-38.87,26.69c-1.83-10.9-4.49-17.8-8.19-17.8-4.95,0-8.06,12.37-9.79,30.14L92.16,196.31c-1.82-9.86-4.39-16-7.88-16-4.75,0-7.8,11.38-9.57,28L25,242.42v14.82l154.94-45.11c.72,32.12,2.58,62.61,5.09,84.24l-51.46,35.34v14.81l57.26-16.66c3,11.48,6.27,17.12,9.17,17.12s6.16-5.64,9.16-17.13l57.27,16.67V331.71L215,296.37c2.52-21.63,4.38-52.13,5.1-84.24Z" transform="translate(-25 -53.02)"/></svg>